<svg xmlns="http://www.w3.org/2000/svg" xmlns:xlink="http://www.w3.org/1999/xlink" zoomAndPan="magnify" preserveAspectRatio="xMidYMid meet" version="1.0" viewBox="141.44 161.27 92.12 52.47"><defs><clipPath id="80a05b65a7"><path d="M 207.324219 161.265625 L 233.558594 161.265625 L 233.558594 187.5 L 207.324219 187.5 Z M 207.324219 161.265625 " clip-rule="nonzero"/></clipPath><clipPath id="67218f80ee"><path d="M 220.441406 161.265625 C 213.195312 161.265625 207.324219 167.136719 207.324219 174.382812 C 207.324219 181.625 213.195312 187.5 220.441406 187.5 C 227.683594 187.5 233.558594 181.625 233.558594 174.382812 C 233.558594 167.136719 227.683594 161.265625 220.441406 161.265625 Z M 220.441406 161.265625 " clip-rule="nonzero"/></clipPath><clipPath id="7bdbf5acda"><path d="M 0.324219 0.265625 L 26.558594 0.265625 L 26.558594 26.5 L 0.324219 26.5 Z M 0.324219 0.265625 " clip-rule="nonzero"/></clipPath><clipPath id="0da59a89d7"><path d="M 13.441406 0.265625 C 6.195312 0.265625 0.324219 6.136719 0.324219 13.382812 C 0.324219 20.625 6.195312 26.5 13.441406 26.5 C 20.683594 26.5 26.558594 20.625 26.558594 13.382812 C 26.558594 6.136719 20.683594 0.265625 13.441406 0.265625 Z M 13.441406 0.265625 " clip-rule="nonzero"/></clipPath><clipPath id="2b2b496e91"><rect x="0" width="27" y="0" height="27"/></clipPath><clipPath id="4eed3083ba"><path d="M 191.203125 187.5 L 217.441406 187.5 L 217.441406 213.734375 L 191.203125 213.734375 Z M 191.203125 187.5 " clip-rule="nonzero"/></clipPath><clipPath id="b0b27eb420"><path d="M 204.324219 187.5 C 197.078125 187.5 191.203125 193.375 191.203125 200.617188 C 191.203125 207.863281 197.078125 213.734375 204.324219 213.734375 C 211.566406 213.734375 217.441406 207.863281 217.441406 200.617188 C 217.441406 193.375 211.566406 187.5 204.324219 187.5 Z M 204.324219 187.5 " clip-rule="nonzero"/></clipPath><clipPath id="9274231e57"><path d="M 0.203125 0.5 L 26.441406 0.5 L 26.441406 26.734375 L 0.203125 26.734375 Z M 0.203125 0.5 " clip-rule="nonzero"/></clipPath><clipPath id="5dfc625a59"><path d="M 13.324219 0.5 C 6.078125 0.5 0.203125 6.375 0.203125 13.617188 C 0.203125 20.863281 6.078125 26.734375 13.324219 26.734375 C 20.566406 26.734375 26.441406 20.863281 26.441406 13.617188 C 26.441406 6.375 20.566406 0.5 13.324219 0.5 Z M 13.324219 0.5 " clip-rule="nonzero"/></clipPath><clipPath id="f26faaf1db"><rect x="0" width="27" y="0" height="27"/></clipPath><clipPath id="141e57d487"><path d="M 174.382812 161.265625 L 200.617188 161.265625 L 200.617188 187.5 L 174.382812 187.5 Z M 174.382812 161.265625 " clip-rule="nonzero"/></clipPath><clipPath id="4026c3b35d"><path d="M 187.5 161.265625 C 180.253906 161.265625 174.382812 167.136719 174.382812 174.382812 C 174.382812 181.625 180.253906 187.5 187.5 187.5 C 194.746094 187.5 200.617188 181.625 200.617188 174.382812 C 200.617188 167.136719 194.746094 161.265625 187.5 161.265625 Z M 187.5 161.265625 " clip-rule="nonzero"/></clipPath><clipPath id="3885c31bbb"><path d="M 0.382812 0.265625 L 26.617188 0.265625 L 26.617188 26.5 L 0.382812 26.5 Z M 0.382812 0.265625 " clip-rule="nonzero"/></clipPath><clipPath id="2aa82e37fb"><path d="M 13.5 0.265625 C 6.253906 0.265625 0.382812 6.136719 0.382812 13.382812 C 0.382812 20.625 6.253906 26.5 13.5 26.5 C 20.746094 26.5 26.617188 20.625 26.617188 13.382812 C 26.617188 6.136719 20.746094 0.265625 13.5 0.265625 Z M 13.5 0.265625 " clip-rule="nonzero"/></clipPath><clipPath id="4850a6836c"><rect x="0" width="27" y="0" height="27"/></clipPath><clipPath id="dcc1e23525"><path d="M 141.441406 161.265625 L 167.675781 161.265625 L 167.675781 187.5 L 141.441406 187.5 Z M 141.441406 161.265625 " clip-rule="nonzero"/></clipPath><clipPath id="58a6241ab7"><path d="M 154.558594 161.265625 C 147.3125 161.265625 141.441406 167.136719 141.441406 174.382812 C 141.441406 181.625 147.3125 187.5 154.558594 187.5 C 161.804688 187.5 167.675781 181.625 167.675781 174.382812 C 167.675781 167.136719 161.804688 161.265625 154.558594 161.265625 Z M 154.558594 161.265625 " clip-rule="nonzero"/></clipPath><clipPath id="b34a3b88a5"><path d="M 0.441406 0.265625 L 26.675781 0.265625 L 26.675781 26.5 L 0.441406 26.5 Z M 0.441406 0.265625 " clip-rule="nonzero"/></clipPath><clipPath id="6a0f3a5c14"><path d="M 13.558594 0.265625 C 6.3125 0.265625 0.441406 6.136719 0.441406 13.382812 C 0.441406 20.625 6.3125 26.5 13.558594 26.5 C 20.804688 26.5 26.675781 20.625 26.675781 13.382812 C 26.675781 6.136719 20.804688 0.265625 13.558594 0.265625 Z M 13.558594 0.265625 " clip-rule="nonzero"/></clipPath><clipPath id="80262c36c7"><rect x="0" width="27" y="0" height="27"/></clipPath><clipPath id="2a375c633b"><path d="M 158.308594 187.5 L 184.546875 187.5 L 184.546875 213.734375 L 158.308594 213.734375 Z M 158.308594 187.5 " clip-rule="nonzero"/></clipPath><clipPath id="6fe68e21f1"><path d="M 171.425781 187.5 C 164.183594 187.5 158.308594 193.375 158.308594 200.617188 C 158.308594 207.863281 164.183594 213.734375 171.425781 213.734375 C 178.671875 213.734375 184.546875 207.863281 184.546875 200.617188 C 184.546875 193.375 178.671875 187.5 171.425781 187.5 Z M 171.425781 187.5 " clip-rule="nonzero"/></clipPath><clipPath id="f60c7aa984"><path d="M 0.308594 0.5 L 26.546875 0.5 L 26.546875 26.734375 L 0.308594 26.734375 Z M 0.308594 0.5 " clip-rule="nonzero"/></clipPath><clipPath id="8e5a108970"><path d="M 13.425781 0.5 C 6.183594 0.5 0.308594 6.375 0.308594 13.617188 C 0.308594 20.863281 6.183594 26.734375 13.425781 26.734375 C 20.671875 26.734375 26.546875 20.863281 26.546875 13.617188 C 26.546875 6.375 20.671875 0.5 13.425781 0.5 Z M 13.425781 0.5 " clip-rule="nonzero"/></clipPath><clipPath id="4fc8e11506"><rect x="0" width="27" y="0" height="27"/></clipPath></defs><g clip-path="url(#80a05b65a7)"><g clip-path="url(#67218f80ee)"><g transform="matrix(1, 0, 0, 1, 207, 161)"><g clip-path="url(#2b2b496e91)"><g clip-path="url(#7bdbf5acda)"><g clip-path="url(#0da59a89d7)"><path fill="#fd6d3e" d="M 0.324219 0.265625 L 26.558594 0.265625 L 26.558594 26.5 L 0.324219 26.5 Z M 0.324219 0.265625 " fill-opacity="1" fill-rule="nonzero"/></g></g></g></g></g></g><g clip-path="url(#4eed3083ba)"><g clip-path="url(#b0b27eb420)"><g transform="matrix(1, 0, 0, 1, 191, 187)"><g clip-path="url(#f26faaf1db)"><g clip-path="url(#9274231e57)"><g clip-path="url(#5dfc625a59)"><path fill="#fdbc28" d="M 0.203125 0.5 L 26.441406 0.5 L 26.441406 26.734375 L 0.203125 26.734375 Z M 0.203125 0.5 " fill-opacity="1" fill-rule="nonzero"/></g></g></g></g></g></g><g clip-path="url(#141e57d487)"><g clip-path="url(#4026c3b35d)"><g transform="matrix(1, 0, 0, 1, 174, 161)"><g clip-path="url(#4850a6836c)"><g clip-path="url(#3885c31bbb)"><g clip-path="url(#2aa82e37fb)"><path fill="#45c8ff" d="M 0.382812 0.265625 L 26.617188 0.265625 L 26.617188 26.5 L 0.382812 26.5 Z M 0.382812 0.265625 " fill-opacity="1" fill-rule="nonzero"/></g></g></g></g></g></g><g clip-path="url(#dcc1e23525)"><g clip-path="url(#58a6241ab7)"><g transform="matrix(1, 0, 0, 1, 141, 161)"><g clip-path="url(#80262c36c7)"><g clip-path="url(#b34a3b88a5)"><g clip-path="url(#6a0f3a5c14)"><path fill="#76df64" d="M 0.441406 0.265625 L 26.675781 0.265625 L 26.675781 26.5 L 0.441406 26.5 Z M 0.441406 0.265625 " fill-opacity="1" fill-rule="nonzero"/></g></g></g></g></g></g><g clip-path="url(#2a375c633b)"><g clip-path="url(#6fe68e21f1)"><g transform="matrix(1, 0, 0, 1, 158, 187)"><g clip-path="url(#4fc8e11506)"><g clip-path="url(#f60c7aa984)"><g clip-path="url(#8e5a108970)"><path fill="#f896a8" d="M 0.308594 0.5 L 26.546875 0.5 L 26.546875 26.734375 L 0.308594 26.734375 Z M 0.308594 0.5 " fill-opacity="1" fill-rule="nonzero"/></g></g></g></g></g></g></svg>