<svg xmlns="http://www.w3.org/2000/svg" xmlns:xlink="http://www.w3.org/1999/xlink" zoomAndPan="magnify" preserveAspectRatio="xMidYMid meet" version="1.0" viewBox="51.09 125.26 273.13 111.24"><defs><g/><clipPath id="5457099ccd"><path d="M 309.074219 178.933594 L 324.222656 178.933594 L 324.222656 194.085938 L 309.074219 194.085938 Z M 309.074219 178.933594 " clip-rule="nonzero"/></clipPath><clipPath id="7cff433a73"><path d="M 316.648438 178.933594 C 312.464844 178.933594 309.074219 182.328125 309.074219 186.511719 C 309.074219 190.695312 312.464844 194.085938 316.648438 194.085938 C 320.832031 194.085938 324.222656 190.695312 324.222656 186.511719 C 324.222656 182.328125 320.832031 178.933594 316.648438 178.933594 Z M 316.648438 178.933594 " clip-rule="nonzero"/></clipPath><clipPath id="829c35137e"><path d="M 0.0742188 0.933594 L 15.222656 0.933594 L 15.222656 16.085938 L 0.0742188 16.085938 Z M 0.0742188 0.933594 " clip-rule="nonzero"/></clipPath><clipPath id="f318f82cd4"><path d="M 7.648438 0.933594 C 3.464844 0.933594 0.0742188 4.328125 0.0742188 8.511719 C 0.0742188 12.695312 3.464844 16.085938 7.648438 16.085938 C 11.832031 16.085938 15.222656 12.695312 15.222656 8.511719 C 15.222656 4.328125 11.832031 0.933594 7.648438 0.933594 Z M 7.648438 0.933594 " clip-rule="nonzero"/></clipPath><clipPath id="3302811906"><rect x="0" width="16" y="0" height="17"/></clipPath></defs><path fill="#f896a8" d="M 157.503906 188.046875 L 155.445312 194.535156 C 149.984375 207.289062 140.785156 216.335938 127.839844 221.667969 C 114.820312 226.976562 100.964844 227.074219 86.265625 221.960938 C 72.402344 216.417969 62.382812 207.507812 56.210938 195.230469 C 54.242188 191.265625 52.828125 187.125 51.976562 182.804688 L 51.160156 176.261719 C 50.910156 171.832031 51.316406 167.371094 52.378906 162.878906 C 56.054688 149.1875 63.929688 138.945312 76.011719 132.164062 C 88.089844 125.378906 101.617188 123.59375 116.589844 126.8125 C 131.398438 130.726562 142.648438 138.441406 150.34375 149.960938 C 158.042969 161.480469 160.429688 174.175781 157.503906 188.046875 " fill-opacity="1" fill-rule="nonzero"/><g fill="#1b1b1b" fill-opacity="1"><g transform="translate(66.577699, 193.185177)"><g><path d="M 26.59375 -39.96875 C 27.164062 -39.96875 27.554688 -39.929688 27.765625 -39.859375 C 27.984375 -39.785156 28.113281 -39.710938 28.15625 -39.640625 C 28.445312 -39.359375 28.597656 -39.007812 28.609375 -38.59375 C 28.628906 -38.175781 28.625 -37.769531 28.59375 -37.375 C 28.550781 -36.832031 28.519531 -36.28125 28.5 -35.71875 C 28.488281 -35.164062 28.5 -34.625 28.53125 -34.09375 C 28.53125 -33.945312 28.53125 -33.78125 28.53125 -33.59375 C 28.53125 -33.414062 28.492188 -33.238281 28.421875 -33.0625 C 28.316406 -32.738281 27.984375 -32.550781 27.421875 -32.5 C 26.867188 -32.445312 26.285156 -32.453125 25.671875 -32.515625 C 25.054688 -32.585938 24.585938 -32.625 24.265625 -32.625 C 23.441406 -32.664062 22.613281 -32.6875 21.78125 -32.6875 C 20.957031 -32.6875 20.132812 -32.6875 19.3125 -32.6875 C 17.65625 -32.6875 16.015625 -32.6875 14.390625 -32.6875 C 12.773438 -32.6875 11.144531 -32.6875 9.5 -32.6875 C 9.132812 -32.6875 8.816406 -32.550781 8.546875 -32.28125 C 8.273438 -32.007812 8.140625 -31.675781 8.140625 -31.28125 L 8.140625 -24.96875 C 8.140625 -24.570312 8.273438 -24.238281 8.546875 -23.96875 C 8.816406 -23.707031 9.132812 -23.578125 9.5 -23.578125 C 10.070312 -23.578125 10.644531 -23.578125 11.21875 -23.578125 C 11.789062 -23.578125 12.363281 -23.578125 12.9375 -23.578125 C 14.914062 -23.578125 16.882812 -23.578125 18.84375 -23.578125 C 20.8125 -23.578125 22.78125 -23.59375 24.75 -23.625 C 25.144531 -23.65625 25.425781 -23.507812 25.59375 -23.1875 C 25.757812 -22.863281 25.859375 -22.503906 25.890625 -22.109375 C 25.921875 -21.710938 25.9375 -21.375 25.9375 -21.09375 C 25.9375 -20.769531 25.945312 -20.226562 25.96875 -19.46875 C 25.988281 -18.71875 25.9375 -18.007812 25.8125 -17.34375 C 25.6875 -16.675781 25.40625 -16.269531 24.96875 -16.125 C 24.820312 -16.09375 24.660156 -16.078125 24.484375 -16.078125 C 24.304688 -16.078125 24.128906 -16.078125 23.953125 -16.078125 C 22.148438 -16.253906 20.332031 -16.320312 18.5 -16.28125 C 16.664062 -16.25 14.832031 -16.234375 13 -16.234375 C 11.34375 -16.234375 10.164062 -16.148438 9.46875 -15.984375 C 8.769531 -15.828125 8.347656 -15.429688 8.203125 -14.796875 C 8.054688 -14.171875 7.984375 -13.140625 7.984375 -11.703125 C 7.984375 -10.515625 8.023438 -9.601562 8.109375 -8.96875 C 8.203125 -8.34375 8.457031 -7.910156 8.875 -7.671875 C 9.289062 -7.441406 9.960938 -7.3125 10.890625 -7.28125 C 11.828125 -7.25 13.140625 -7.234375 14.828125 -7.234375 C 17.054688 -7.234375 19.265625 -7.238281 21.453125 -7.25 C 23.648438 -7.269531 25.847656 -7.28125 28.046875 -7.28125 C 28.835938 -7.28125 29.234375 -7.007812 29.234375 -6.46875 C 29.234375 -5.925781 29.21875 -5.367188 29.1875 -4.796875 C 29.144531 -4.367188 29.113281 -3.929688 29.09375 -3.484375 C 29.082031 -3.035156 29.09375 -2.578125 29.125 -2.109375 C 29.164062 -1.492188 29.113281 -1.015625 28.96875 -0.671875 C 28.820312 -0.328125 28.367188 -0.15625 27.609375 -0.15625 C 25.523438 -0.15625 23.429688 -0.15625 21.328125 -0.15625 C 19.222656 -0.15625 17.113281 -0.15625 15 -0.15625 C 13.050781 -0.195312 11.085938 -0.242188 9.109375 -0.296875 C 7.140625 -0.347656 5.179688 -0.320312 3.234375 -0.21875 C 2.835938 -0.175781 2.40625 -0.117188 1.9375 -0.046875 C 1.46875 0.015625 1.035156 -0.0390625 0.640625 -0.21875 C 0.285156 -0.394531 0.0976562 -0.816406 0.078125 -1.484375 C 0.0546875 -2.148438 0.046875 -2.660156 0.046875 -3.015625 C 0.015625 -3.597656 0 -4.164062 0 -4.71875 C 0 -5.28125 0 -5.847656 0 -6.421875 C 0.03125 -7.566406 0.0625 -8.722656 0.09375 -9.890625 C 0.132812 -11.066406 0.15625 -12.25 0.15625 -13.4375 C 0.15625 -17.28125 0.15625 -21.1875 0.15625 -25.15625 C 0.15625 -29.132812 0.117188 -33.082031 0.046875 -37 C 0.046875 -38.332031 0.226562 -39.175781 0.59375 -39.53125 C 0.914062 -39.851562 1.347656 -40.015625 1.890625 -40.015625 C 2.429688 -40.015625 2.898438 -40 3.296875 -39.96875 C 3.898438 -39.96875 4.5 -39.96875 5.09375 -39.96875 C 5.6875 -39.96875 6.269531 -39.945312 6.84375 -39.90625 C 8 -39.875 9.148438 -39.859375 10.296875 -39.859375 C 11.453125 -39.859375 12.585938 -39.859375 13.703125 -39.859375 C 15.609375 -39.859375 17.503906 -39.863281 19.390625 -39.875 C 21.273438 -39.894531 23.15625 -39.925781 25.03125 -39.96875 Z M 26.59375 -39.96875 "/></g></g></g><g fill="#1b1b1b" fill-opacity="1"><g transform="translate(95.969043, 193.185177)"><g><path d="M 2.21875 -7.4375 C 1.0625 -9.53125 0.363281 -11.65625 0.125 -13.8125 C -0.101562 -15.96875 0.0507812 -18.039062 0.59375 -20.03125 C 1.132812 -22.03125 1.953125 -23.820312 3.046875 -25.40625 C 4.140625 -26.988281 5.425781 -28.226562 6.90625 -29.125 C 8.914062 -30.34375 11.160156 -30.953125 13.640625 -30.953125 C 14.148438 -30.953125 14.789062 -30.84375 15.5625 -30.625 C 16.332031 -30.414062 17.140625 -30.191406 17.984375 -29.953125 C 18.828125 -29.722656 19.632812 -29.585938 20.40625 -29.546875 C 21.1875 -29.515625 21.84375 -29.660156 22.375 -29.984375 C 22.914062 -30.304688 23.257812 -30.921875 23.40625 -31.828125 C 23.582031 -33.117188 23.617188 -34.519531 23.515625 -36.03125 C 23.410156 -37.539062 23.320312 -38.960938 23.25 -40.296875 C 23.207031 -41.191406 23.382812 -41.765625 23.78125 -42.015625 C 24.175781 -42.265625 24.707031 -42.367188 25.375 -42.328125 C 26.039062 -42.296875 26.71875 -42.265625 27.40625 -42.234375 C 28.050781 -42.234375 28.660156 -42.273438 29.234375 -42.359375 C 29.804688 -42.453125 30.269531 -42.410156 30.625 -42.234375 C 30.988281 -42.054688 31.171875 -41.515625 31.171875 -40.609375 C 31.171875 -37.304688 31.171875 -34 31.171875 -30.6875 C 31.171875 -27.382812 31.171875 -24.078125 31.171875 -20.765625 C 31.140625 -17.710938 31.210938 -14.644531 31.390625 -11.5625 C 31.566406 -8.488281 31.515625 -5.425781 31.234375 -2.375 C 31.160156 -1.582031 30.90625 -1.066406 30.46875 -0.828125 C 30.039062 -0.597656 29.519531 -0.523438 28.90625 -0.609375 C 28.300781 -0.703125 27.671875 -0.859375 27.015625 -1.078125 C 26.367188 -1.296875 25.78125 -1.441406 25.25 -1.515625 C 23.914062 -1.691406 22.671875 -1.707031 21.515625 -1.5625 C 20.367188 -1.414062 19.164062 -1.09375 17.90625 -0.59375 C 15.894531 0.164062 13.8125 0.289062 11.65625 -0.21875 C 9.675781 -0.644531 7.835938 -1.515625 6.140625 -2.828125 C 4.453125 -4.140625 3.144531 -5.675781 2.21875 -7.4375 Z M 15.859375 -24.703125 C 14.492188 -24.703125 13.207031 -24.257812 12 -23.375 C 10.789062 -22.5 9.804688 -21.359375 9.046875 -19.953125 C 8.296875 -18.554688 7.921875 -17.066406 7.921875 -15.484375 C 7.921875 -13.972656 8.289062 -12.539062 9.03125 -11.1875 C 9.769531 -9.84375 10.738281 -8.75 11.9375 -7.90625 C 13.144531 -7.0625 14.429688 -6.617188 15.796875 -6.578125 L 16.015625 -6.578125 C 17.847656 -6.578125 19.429688 -7.242188 20.765625 -8.578125 C 22.453125 -10.335938 23.296875 -12.65625 23.296875 -15.53125 C 23.296875 -18.195312 22.613281 -20.382812 21.25 -22.09375 C 19.882812 -23.800781 18.125 -24.671875 15.96875 -24.703125 Z M 15.859375 -24.703125 "/></g></g></g><g fill="#1b1b1b" fill-opacity="1"><g transform="translate(127.571511, 193.185177)"><g><path d="M 21.140625 -0.375 C 19.410156 -0.269531 17.679688 -0.179688 15.953125 -0.109375 C 14.234375 -0.0351562 12.507812 0 10.78125 0 C 7.832031 0 5.40625 -1.023438 3.5 -3.078125 C 1.59375 -5.128906 0.515625 -7.84375 0.265625 -11.21875 C 0.0546875 -14.269531 -0.015625 -17.34375 0.046875 -20.4375 C 0.117188 -23.53125 0.175781 -26.609375 0.21875 -29.671875 C 0.21875 -30.128906 0.46875 -30.457031 0.96875 -30.65625 C 1.46875 -30.851562 2.085938 -30.976562 2.828125 -31.03125 C 3.566406 -31.09375 4.269531 -31.09375 4.9375 -31.03125 C 5.601562 -30.976562 6.097656 -30.953125 6.421875 -30.953125 C 7.140625 -30.953125 7.648438 -30.703125 7.953125 -30.203125 C 8.265625 -29.703125 8.445312 -29.082031 8.5 -28.34375 C 8.550781 -27.601562 8.550781 -26.863281 8.5 -26.125 C 8.445312 -25.394531 8.421875 -24.8125 8.421875 -24.375 C 8.378906 -22.289062 8.3125 -20.210938 8.21875 -18.140625 C 8.132812 -16.078125 8.21875 -14.019531 8.46875 -11.96875 C 8.644531 -10.5 9.191406 -9.269531 10.109375 -8.28125 C 11.023438 -7.289062 12.257812 -6.742188 13.8125 -6.640625 C 13.882812 -6.640625 13.953125 -6.640625 14.015625 -6.640625 C 14.085938 -6.640625 14.160156 -6.640625 14.234375 -6.640625 C 15.890625 -6.640625 17.3125 -7.226562 18.5 -8.40625 C 19.6875 -9.59375 20.296875 -11.050781 20.328125 -12.78125 C 20.398438 -15.226562 20.453125 -17.703125 20.484375 -20.203125 C 20.523438 -22.703125 20.507812 -25.300781 20.4375 -28 C 20.40625 -29.25 20.566406 -30.054688 20.921875 -30.421875 C 21.285156 -30.773438 21.867188 -31.023438 22.671875 -31.171875 C 23.484375 -31.316406 24.328125 -31.34375 25.203125 -31.25 C 26.085938 -31.164062 26.84375 -30.941406 27.46875 -30.578125 C 28.101562 -30.222656 28.421875 -29.722656 28.421875 -29.078125 C 28.421875 -26.660156 28.382812 -24.25 28.3125 -21.84375 C 28.238281 -19.4375 28.164062 -17.023438 28.09375 -14.609375 C 28.0625 -12.921875 28.070312 -11.25 28.125 -9.59375 C 28.175781 -7.945312 28.332031 -6.273438 28.59375 -4.578125 C 28.800781 -3.285156 28.6875 -2.34375 28.25 -1.75 C 27.820312 -1.15625 27.210938 -0.773438 26.421875 -0.609375 C 25.640625 -0.453125 24.769531 -0.390625 23.8125 -0.421875 C 22.863281 -0.460938 21.972656 -0.445312 21.140625 -0.375 Z M 21.140625 -0.375 "/></g></g></g><g fill="#1b1b1b" fill-opacity="1"><g transform="translate(156.369627, 193.185177)"><g><path d="M 18.546875 -0.15625 C 18.085938 -0.125 17.625 -0.0976562 17.15625 -0.078125 C 16.6875 -0.0546875 16.21875 -0.046875 15.75 -0.046875 C 13.050781 -0.0859375 10.398438 -0.546875 7.796875 -1.421875 C 5.191406 -2.304688 2.878906 -3.664062 0.859375 -5.5 C 0.710938 -5.644531 0.53125 -5.820312 0.3125 -6.03125 C 0.101562 -6.25 0.015625 -6.484375 0.046875 -6.734375 C 0.0859375 -6.847656 0.144531 -6.945312 0.21875 -7.03125 C 0.289062 -7.125 0.34375 -7.207031 0.375 -7.28125 C 0.769531 -7.707031 1.144531 -8.128906 1.5 -8.546875 C 1.863281 -8.960938 2.226562 -9.382812 2.59375 -9.8125 C 2.875 -10.132812 3.148438 -10.503906 3.421875 -10.921875 C 3.691406 -11.335938 4.0625 -11.5625 4.53125 -11.59375 C 4.851562 -11.59375 5.160156 -11.503906 5.453125 -11.328125 C 6.597656 -10.828125 7.738281 -10.257812 8.875 -9.625 C 10.007812 -9 11.160156 -8.453125 12.328125 -7.984375 C 13.492188 -7.515625 14.6875 -7.269531 15.90625 -7.25 C 17.132812 -7.238281 18.378906 -7.570312 19.640625 -8.25 C 19.992188 -8.425781 20.332031 -8.648438 20.65625 -8.921875 C 20.976562 -9.191406 21.226562 -9.488281 21.40625 -9.8125 C 21.84375 -10.601562 21.953125 -11.320312 21.734375 -11.96875 C 21.515625 -12.613281 21.109375 -13.195312 20.515625 -13.71875 C 19.929688 -14.25 19.273438 -14.703125 18.546875 -15.078125 C 17.828125 -15.453125 17.203125 -15.75 16.671875 -15.96875 C 15.484375 -16.46875 14.273438 -16.890625 13.046875 -17.234375 C 11.828125 -17.578125 10.609375 -17.945312 9.390625 -18.34375 C 8.203125 -18.738281 7.050781 -19.222656 5.9375 -19.796875 C 4.820312 -20.367188 3.882812 -21.160156 3.125 -22.171875 C 2.125 -23.460938 1.539062 -24.960938 1.375 -26.671875 C 1.207031 -28.378906 1.304688 -30.003906 1.671875 -31.546875 C 1.960938 -32.984375 2.546875 -34.25 3.421875 -35.34375 C 4.304688 -36.445312 5.378906 -37.34375 6.640625 -38.03125 C 8.972656 -39.394531 11.8125 -40.078125 15.15625 -40.078125 C 16.5625 -40.078125 17.953125 -39.953125 19.328125 -39.703125 C 20.710938 -39.453125 22.070312 -39.09375 23.40625 -38.625 C 24.125 -38.363281 24.859375 -38.082031 25.609375 -37.78125 C 26.367188 -37.476562 27.019531 -37.117188 27.5625 -36.703125 C 28.101562 -36.285156 28.441406 -35.753906 28.578125 -35.109375 C 28.722656 -34.460938 28.546875 -33.671875 28.046875 -32.734375 C 27.898438 -32.378906 27.71875 -32.039062 27.5 -31.71875 C 27.289062 -31.394531 27.078125 -31.085938 26.859375 -30.796875 C 26.679688 -30.441406 26.46875 -30.191406 26.21875 -30.046875 C 25.78125 -29.753906 25.316406 -29.734375 24.828125 -29.984375 C 24.347656 -30.234375 23.929688 -30.46875 23.578125 -30.6875 C 22.273438 -31.519531 20.894531 -32.148438 19.4375 -32.578125 C 17.988281 -33.003906 16.488281 -33.128906 14.9375 -32.953125 C 13.9375 -32.847656 13.003906 -32.535156 12.140625 -32.015625 C 11.273438 -31.492188 10.707031 -30.828125 10.4375 -30.015625 C 10.164062 -29.203125 10.425781 -28.273438 11.21875 -27.234375 C 12.082031 -26.117188 13.171875 -25.273438 14.484375 -24.703125 C 15.796875 -24.128906 17.171875 -23.671875 18.609375 -23.328125 C 20.046875 -22.984375 21.375 -22.5625 22.59375 -22.0625 C 23.53125 -21.695312 24.457031 -21.269531 25.375 -20.78125 C 26.289062 -20.300781 27.109375 -19.703125 27.828125 -18.984375 C 28.835938 -18.015625 29.546875 -16.828125 29.953125 -15.421875 C 30.367188 -14.023438 30.539062 -12.585938 30.46875 -11.109375 C 30.394531 -9.640625 30.09375 -8.273438 29.5625 -7.015625 C 28.945312 -5.578125 28.054688 -4.367188 26.890625 -3.390625 C 25.722656 -2.421875 24.414062 -1.675781 22.96875 -1.15625 C 21.53125 -0.632812 20.054688 -0.300781 18.546875 -0.15625 Z M 18.546875 -0.15625 "/></g></g></g><g fill="#1b1b1b" fill-opacity="1"><g transform="translate(187.001362, 193.185177)"><g><path d="M 30.265625 -13.703125 C 29.828125 -13.335938 29.1875 -13.09375 28.34375 -12.96875 C 27.5 -12.84375 26.597656 -12.78125 25.640625 -12.78125 C 24.691406 -12.78125 23.800781 -12.796875 22.96875 -12.828125 C 22.144531 -12.867188 21.519531 -12.890625 21.09375 -12.890625 C 19.21875 -12.859375 17.363281 -12.832031 15.53125 -12.8125 C 13.695312 -12.789062 11.847656 -12.78125 9.984375 -12.78125 C 9.398438 -12.78125 9.023438 -12.597656 8.859375 -12.234375 C 8.703125 -11.878906 8.6875 -11.476562 8.8125 -11.03125 C 8.9375 -10.582031 9.109375 -10.195312 9.328125 -9.875 C 10.085938 -8.90625 11.03125 -8.125 12.15625 -7.53125 C 13.289062 -6.9375 14.472656 -6.566406 15.703125 -6.421875 C 17.066406 -6.273438 18.207031 -6.460938 19.125 -6.984375 C 20.039062 -7.503906 21.070312 -8.050781 22.21875 -8.625 C 22.757812 -8.914062 23.128906 -9.097656 23.328125 -9.171875 C 23.523438 -9.242188 23.859375 -9.082031 24.328125 -8.6875 C 24.828125 -8.289062 25.300781 -7.75 25.75 -7.0625 C 26.195312 -6.382812 26.640625 -5.789062 27.078125 -5.28125 C 27.546875 -4.675781 27.523438 -4.101562 27.015625 -3.5625 C 26.515625 -3.019531 25.742188 -2.523438 24.703125 -2.078125 C 23.660156 -1.628906 22.523438 -1.242188 21.296875 -0.921875 C 20.078125 -0.597656 18.972656 -0.34375 17.984375 -0.15625 C 16.992188 0.0195312 16.320312 0.109375 15.96875 0.109375 C 13.5625 0.109375 11.335938 -0.363281 9.296875 -1.3125 C 7.265625 -2.269531 5.53125 -3.566406 4.09375 -5.203125 C 2.65625 -6.835938 1.578125 -8.679688 0.859375 -10.734375 C 0.140625 -12.785156 -0.140625 -14.929688 0.015625 -17.171875 C 0.179688 -19.421875 0.878906 -21.609375 2.109375 -23.734375 C 3.035156 -25.390625 4.28125 -26.789062 5.84375 -27.9375 C 7.414062 -29.09375 9.144531 -29.945312 11.03125 -30.5 C 12.914062 -31.0625 14.847656 -31.3125 16.828125 -31.25 C 18.804688 -31.195312 20.6875 -30.800781 22.46875 -30.0625 C 24.25 -29.332031 25.800781 -28.226562 27.125 -26.75 C 27.738281 -26.070312 28.320312 -25.21875 28.875 -24.1875 C 29.4375 -23.164062 29.914062 -22.0625 30.3125 -20.875 C 30.707031 -19.6875 30.945312 -18.523438 31.03125 -17.390625 C 31.125 -16.265625 31.007812 -15.234375 30.6875 -14.296875 C 30.613281 -14.078125 30.472656 -13.878906 30.265625 -13.703125 Z M 22.109375 -19.3125 C 22.222656 -19.5625 22.257812 -19.832031 22.21875 -20.125 C 22.1875 -20.550781 21.988281 -20.960938 21.625 -21.359375 C 20.65625 -22.722656 19.394531 -23.726562 17.84375 -24.375 C 16.300781 -25.019531 14.722656 -24.984375 13.109375 -24.265625 C 12.390625 -23.941406 11.710938 -23.53125 11.078125 -23.03125 C 10.453125 -22.53125 9.867188 -21.988281 9.328125 -21.40625 C 9.179688 -21.269531 9.035156 -21.109375 8.890625 -20.921875 C 8.753906 -20.742188 8.648438 -20.546875 8.578125 -20.328125 C 8.429688 -19.898438 8.5 -19.503906 8.78125 -19.140625 C 9.070312 -18.785156 9.4375 -18.609375 9.875 -18.609375 L 20.875 -18.609375 C 21.488281 -18.609375 21.898438 -18.84375 22.109375 -19.3125 Z M 22.109375 -19.3125 "/></g></g></g><g fill="#1b1b1b" fill-opacity="1"><g transform="translate(218.172388, 193.185177)"><g><path d="M 27.5625 -0.265625 C 26.625 -0.304688 25.675781 -0.316406 24.71875 -0.296875 C 23.769531 -0.273438 22.8125 -0.265625 21.84375 -0.265625 C 21.625 -0.265625 21.453125 -0.640625 21.328125 -1.390625 C 21.203125 -2.148438 21.117188 -3.140625 21.078125 -4.359375 C 21.046875 -5.585938 21.03125 -6.910156 21.03125 -8.328125 C 21.03125 -9.753906 21.046875 -11.128906 21.078125 -12.453125 C 21.117188 -13.785156 21.148438 -14.9375 21.171875 -15.90625 C 21.191406 -16.882812 21.203125 -17.515625 21.203125 -17.796875 C 21.160156 -19.804688 20.84375 -21.332031 20.25 -22.375 C 19.65625 -23.425781 18.914062 -24.148438 18.03125 -24.546875 C 17.15625 -24.941406 16.285156 -25.140625 15.421875 -25.140625 L 15.3125 -25.140625 C 13.269531 -25.140625 11.609375 -24.445312 10.328125 -23.0625 C 9.054688 -21.675781 8.382812 -19.867188 8.3125 -17.640625 C 8.269531 -16.203125 8.25 -14.765625 8.25 -13.328125 C 8.25 -11.890625 8.25 -10.445312 8.25 -9 C 8.289062 -7.882812 8.390625 -6.65625 8.546875 -5.3125 C 8.710938 -3.96875 8.6875 -2.738281 8.46875 -1.625 C 8.320312 -0.789062 7.988281 -0.347656 7.46875 -0.296875 C 6.945312 -0.242188 6.363281 -0.195312 5.71875 -0.15625 C 5.28125 -0.125 4.710938 -0.0820312 4.015625 -0.03125 C 3.316406 0.0195312 2.632812 -0.00390625 1.96875 -0.109375 C 1.300781 -0.210938 0.804688 -0.484375 0.484375 -0.921875 C 0.0859375 -1.492188 -0.0546875 -2.179688 0.046875 -2.984375 C 0.160156 -3.796875 0.234375 -4.507812 0.265625 -5.125 C 0.410156 -7.101562 0.519531 -9.117188 0.59375 -11.171875 C 0.695312 -15.046875 0.585938 -18.910156 0.265625 -22.765625 C 0.191406 -23.515625 0.132812 -24.394531 0.09375 -25.40625 C 0.0625 -26.414062 0.144531 -27.378906 0.34375 -28.296875 C 0.539062 -29.210938 0.9375 -29.929688 1.53125 -30.453125 C 2.125 -30.972656 3.015625 -31.125 4.203125 -30.90625 C 5.171875 -30.726562 6.125 -30.503906 7.0625 -30.234375 C 8 -29.960938 8.953125 -29.738281 9.921875 -29.5625 C 9.992188 -29.5625 10.070312 -29.5625 10.15625 -29.5625 C 10.25 -29.5625 10.316406 -29.5625 10.359375 -29.5625 C 11.035156 -29.5625 11.71875 -29.691406 12.40625 -29.953125 C 13.09375 -30.222656 13.796875 -30.503906 14.515625 -30.796875 C 15.234375 -31.085938 15.953125 -31.25 16.671875 -31.28125 C 18.753906 -31.457031 20.726562 -31.097656 22.59375 -30.203125 C 24.21875 -29.453125 25.46875 -28.460938 26.34375 -27.234375 C 27.226562 -26.015625 27.867188 -24.664062 28.265625 -23.1875 C 28.660156 -21.71875 28.910156 -20.191406 29.015625 -18.609375 C 29.128906 -17.023438 29.21875 -15.460938 29.28125 -13.921875 C 29.28125 -13.597656 29.316406 -12.929688 29.390625 -11.921875 C 29.460938 -10.910156 29.507812 -9.75 29.53125 -8.4375 C 29.550781 -7.125 29.523438 -5.847656 29.453125 -4.609375 C 29.378906 -3.367188 29.207031 -2.332031 28.9375 -1.5 C 28.664062 -0.675781 28.257812 -0.265625 27.71875 -0.265625 C 27.6875 -0.265625 27.660156 -0.265625 27.640625 -0.265625 C 27.617188 -0.265625 27.59375 -0.265625 27.5625 -0.265625 Z M 27.5625 -0.265625 "/></g></g></g><g fill="#1b1b1b" fill-opacity="1"><g transform="translate(247.833389, 193.185177)"><g><path d="M 18.546875 -1.40625 C 16.578125 -0.46875 14.582031 0 12.5625 0 C 11.414062 0 10.148438 -0.160156 8.765625 -0.484375 C 7.378906 -0.804688 6.03125 -1.21875 4.71875 -1.71875 C 3.40625 -2.226562 2.242188 -2.769531 1.234375 -3.34375 C 0.484375 -3.769531 0.0859375 -4.207031 0.046875 -4.65625 C 0.015625 -5.113281 0.175781 -5.582031 0.53125 -6.0625 C 0.894531 -6.550781 1.238281 -7.082031 1.5625 -7.65625 C 1.664062 -7.832031 1.78125 -8.003906 1.90625 -8.171875 C 2.039062 -8.335938 2.175781 -8.472656 2.3125 -8.578125 C 2.707031 -8.859375 3.117188 -8.945312 3.546875 -8.84375 C 3.984375 -8.738281 4.410156 -8.554688 4.828125 -8.296875 C 5.242188 -8.046875 5.613281 -7.832031 5.9375 -7.65625 C 7.050781 -7.039062 8.269531 -6.585938 9.59375 -6.296875 C 10.925781 -6.015625 12.222656 -5.910156 13.484375 -5.984375 C 14.421875 -6.054688 15.285156 -6.265625 16.078125 -6.609375 C 16.867188 -6.953125 17.332031 -7.425781 17.46875 -8.03125 C 17.613281 -8.644531 17.1875 -9.363281 16.1875 -10.1875 C 14.851562 -11.238281 13.4375 -12.101562 11.9375 -12.78125 C 10.445312 -13.46875 8.910156 -14.0625 7.328125 -14.5625 C 5.859375 -15.03125 4.671875 -15.726562 3.765625 -16.65625 C 2.867188 -17.59375 2.234375 -18.632812 1.859375 -19.78125 C 1.484375 -20.9375 1.367188 -22.054688 1.515625 -23.140625 C 1.691406 -24.285156 2.140625 -25.378906 2.859375 -26.421875 C 3.578125 -27.472656 4.472656 -28.390625 5.546875 -29.171875 C 6.628906 -29.960938 7.800781 -30.503906 9.0625 -30.796875 C 9.78125 -30.972656 10.476562 -31.109375 11.15625 -31.203125 C 11.84375 -31.296875 12.53125 -31.34375 13.21875 -31.34375 C 14.507812 -31.34375 15.785156 -31.1875 17.046875 -30.875 C 18.304688 -30.570312 19.507812 -30.148438 20.65625 -29.609375 C 21.695312 -29.140625 22.441406 -28.695312 22.890625 -28.28125 C 23.347656 -27.875 23.507812 -27.378906 23.375 -26.796875 C 23.25 -26.222656 22.828125 -25.414062 22.109375 -24.375 C 21.578125 -23.582031 20.96875 -23.140625 20.28125 -23.046875 C 19.59375 -22.960938 18.851562 -23.0625 18.0625 -23.34375 C 17.269531 -23.632812 16.46875 -23.988281 15.65625 -24.40625 C 14.851562 -24.820312 14.066406 -25.171875 13.296875 -25.453125 C 12.523438 -25.742188 11.8125 -25.832031 11.15625 -25.71875 C 10.507812 -25.613281 9.9375 -25.164062 9.4375 -24.375 C 8.96875 -23.582031 8.832031 -22.890625 9.03125 -22.296875 C 9.226562 -21.703125 9.632812 -21.191406 10.25 -20.765625 C 10.863281 -20.335938 11.570312 -19.976562 12.375 -19.6875 C 13.1875 -19.394531 13.96875 -19.140625 14.71875 -18.921875 C 15.476562 -18.710938 16.09375 -18.519531 16.5625 -18.34375 C 17.925781 -17.832031 19.253906 -17.21875 20.546875 -16.5 C 21.835938 -15.78125 22.878906 -14.773438 23.671875 -13.484375 C 24.753906 -11.679688 25.140625 -10 24.828125 -8.4375 C 24.523438 -6.875 23.796875 -5.488281 22.640625 -4.28125 C 21.492188 -3.082031 20.128906 -2.125 18.546875 -1.40625 Z M 18.546875 -1.40625 "/></g></g></g><g fill="#1b1b1b" fill-opacity="1"><g transform="translate(272.856432, 193.185177)"><g><path d="M 30.265625 -13.703125 C 29.828125 -13.335938 29.1875 -13.09375 28.34375 -12.96875 C 27.5 -12.84375 26.597656 -12.78125 25.640625 -12.78125 C 24.691406 -12.78125 23.800781 -12.796875 22.96875 -12.828125 C 22.144531 -12.867188 21.519531 -12.890625 21.09375 -12.890625 C 19.21875 -12.859375 17.363281 -12.832031 15.53125 -12.8125 C 13.695312 -12.789062 11.847656 -12.78125 9.984375 -12.78125 C 9.398438 -12.78125 9.023438 -12.597656 8.859375 -12.234375 C 8.703125 -11.878906 8.6875 -11.476562 8.8125 -11.03125 C 8.9375 -10.582031 9.109375 -10.195312 9.328125 -9.875 C 10.085938 -8.90625 11.03125 -8.125 12.15625 -7.53125 C 13.289062 -6.9375 14.472656 -6.566406 15.703125 -6.421875 C 17.066406 -6.273438 18.207031 -6.460938 19.125 -6.984375 C 20.039062 -7.503906 21.070312 -8.050781 22.21875 -8.625 C 22.757812 -8.914062 23.128906 -9.097656 23.328125 -9.171875 C 23.523438 -9.242188 23.859375 -9.082031 24.328125 -8.6875 C 24.828125 -8.289062 25.300781 -7.75 25.75 -7.0625 C 26.195312 -6.382812 26.640625 -5.789062 27.078125 -5.28125 C 27.546875 -4.675781 27.523438 -4.101562 27.015625 -3.5625 C 26.515625 -3.019531 25.742188 -2.523438 24.703125 -2.078125 C 23.660156 -1.628906 22.523438 -1.242188 21.296875 -0.921875 C 20.078125 -0.597656 18.972656 -0.34375 17.984375 -0.15625 C 16.992188 0.0195312 16.320312 0.109375 15.96875 0.109375 C 13.5625 0.109375 11.335938 -0.363281 9.296875 -1.3125 C 7.265625 -2.269531 5.53125 -3.566406 4.09375 -5.203125 C 2.65625 -6.835938 1.578125 -8.679688 0.859375 -10.734375 C 0.140625 -12.785156 -0.140625 -14.929688 0.015625 -17.171875 C 0.179688 -19.421875 0.878906 -21.609375 2.109375 -23.734375 C 3.035156 -25.390625 4.28125 -26.789062 5.84375 -27.9375 C 7.414062 -29.09375 9.144531 -29.945312 11.03125 -30.5 C 12.914062 -31.0625 14.847656 -31.3125 16.828125 -31.25 C 18.804688 -31.195312 20.6875 -30.800781 22.46875 -30.0625 C 24.25 -29.332031 25.800781 -28.226562 27.125 -26.75 C 27.738281 -26.070312 28.320312 -25.21875 28.875 -24.1875 C 29.4375 -23.164062 29.914062 -22.0625 30.3125 -20.875 C 30.707031 -19.6875 30.945312 -18.523438 31.03125 -17.390625 C 31.125 -16.265625 31.007812 -15.234375 30.6875 -14.296875 C 30.613281 -14.078125 30.472656 -13.878906 30.265625 -13.703125 Z M 22.109375 -19.3125 C 22.222656 -19.5625 22.257812 -19.832031 22.21875 -20.125 C 22.1875 -20.550781 21.988281 -20.960938 21.625 -21.359375 C 20.65625 -22.722656 19.394531 -23.726562 17.84375 -24.375 C 16.300781 -25.019531 14.722656 -24.984375 13.109375 -24.265625 C 12.390625 -23.941406 11.710938 -23.53125 11.078125 -23.03125 C 10.453125 -22.53125 9.867188 -21.988281 9.328125 -21.40625 C 9.179688 -21.269531 9.035156 -21.109375 8.890625 -20.921875 C 8.753906 -20.742188 8.648438 -20.546875 8.578125 -20.328125 C 8.429688 -19.898438 8.5 -19.503906 8.78125 -19.140625 C 9.070312 -18.785156 9.4375 -18.609375 9.875 -18.609375 L 20.875 -18.609375 C 21.488281 -18.609375 21.898438 -18.84375 22.109375 -19.3125 Z M 22.109375 -19.3125 "/></g></g></g><g clip-path="url(#5457099ccd)"><g clip-path="url(#7cff433a73)"><g transform="matrix(1, 0, 0, 1, 309, 178)"><g clip-path="url(#3302811906)"><g clip-path="url(#829c35137e)"><g clip-path="url(#f318f82cd4)"><path fill="#fd6d3e" d="M 0.0742188 0.933594 L 15.222656 0.933594 L 15.222656 16.085938 L 0.0742188 16.085938 Z M 0.0742188 0.933594 " fill-opacity="1" fill-rule="nonzero"/></g></g></g></g></g></g><g fill="#45c8ff" fill-opacity="1"><g transform="translate(83.94223, 231.46503)"><g><path d="M 3.015625 -4.84375 C 3.117188 -4.8125 3.222656 -4.773438 3.328125 -4.734375 C 3.378906 -4.703125 3.425781 -4.679688 3.46875 -4.671875 C 3.675781 -4.566406 3.820312 -4.484375 3.90625 -4.421875 C 4.03125 -4.347656 4.128906 -4.273438 4.203125 -4.203125 C 4.222656 -4.203125 4.242188 -4.179688 4.265625 -4.140625 C 4.265625 -4.128906 4.273438 -4.113281 4.296875 -4.09375 L 4.34375 -4 C 4.351562 -3.988281 4.359375 -3.957031 4.359375 -3.90625 C 4.359375 -3.875 4.359375 -3.847656 4.359375 -3.828125 L 4.359375 -3.671875 C 4.335938 -3.648438 4.320312 -3.601562 4.3125 -3.53125 C 4.3125 -3.519531 4.300781 -3.5 4.28125 -3.46875 C 4.164062 -3.21875 3.976562 -2.859375 3.71875 -2.390625 C 3.59375 -2.160156 3.472656 -1.914062 3.359375 -1.65625 C 3.117188 -1.050781 2.90625 -0.398438 2.71875 0.296875 C 2.664062 0.398438 2.609375 0.5 2.546875 0.59375 C 2.472656 0.6875 2.414062 0.75 2.375 0.78125 C 2.3125 0.820312 2.207031 0.828125 2.0625 0.796875 C 1.976562 0.773438 1.898438 0.75 1.828125 0.71875 C 1.753906 0.695312 1.675781 0.664062 1.59375 0.625 C 1.457031 0.5625 1.3125 0.476562 1.15625 0.375 C 1.039062 0.3125 0.941406 0.242188 0.859375 0.171875 L 0.8125 0.125 C 0.789062 0.113281 0.769531 0.0859375 0.75 0.046875 C 0.75 0.0351562 0.742188 0.0078125 0.734375 -0.03125 C 0.734375 -0.03125 0.726562 -0.0625 0.71875 -0.125 C 0.695312 -0.144531 0.691406 -0.175781 0.703125 -0.21875 C 0.703125 -0.25 0.707031 -0.296875 0.71875 -0.359375 C 0.738281 -0.429688 0.941406 -1.046875 1.328125 -2.203125 C 1.398438 -2.398438 1.476562 -2.585938 1.5625 -2.765625 L 1.5625 -2.796875 L 1.59375 -2.859375 C 1.59375 -2.867188 1.597656 -2.875 1.609375 -2.875 C 1.953125 -3.695312 2.421875 -4.351562 3.015625 -4.84375 Z M 5.140625 -6.1875 C 5.265625 -5.925781 5.273438 -5.675781 5.171875 -5.4375 C 5.066406 -5.1875 4.878906 -5.015625 4.609375 -4.921875 C 4.359375 -4.816406 4.101562 -4.820312 3.84375 -4.9375 C 3.582031 -5.039062 3.398438 -5.222656 3.296875 -5.484375 C 3.171875 -5.742188 3.160156 -6 3.265625 -6.25 C 3.367188 -6.488281 3.554688 -6.65625 3.828125 -6.75 C 4.078125 -6.832031 4.332031 -6.820312 4.59375 -6.71875 C 4.851562 -6.601562 5.035156 -6.425781 5.140625 -6.1875 Z M 5.140625 -6.1875 "/></g></g></g><g fill="#45c8ff" fill-opacity="1"><g transform="translate(88.512394, 233.366732)"><g><path d="M 1.390625 -3.015625 C 1.734375 -3.390625 2.070312 -3.660156 2.40625 -3.828125 C 2.539062 -3.898438 2.628906 -3.945312 2.671875 -3.96875 C 3.191406 -4.195312 3.734375 -4.304688 4.296875 -4.296875 C 4.785156 -4.273438 5.226562 -4.148438 5.625 -3.921875 C 5.8125 -3.796875 5.984375 -3.632812 6.140625 -3.4375 C 6.285156 -3.207031 6.382812 -2.984375 6.4375 -2.765625 C 6.476562 -2.523438 6.460938 -2.238281 6.390625 -1.90625 C 6.296875 -1.425781 6.128906 -1.019531 5.890625 -0.6875 C 5.742188 -0.476562 5.570312 -0.289062 5.375 -0.125 C 5.15625 0.0507812 4.941406 0.203125 4.734375 0.328125 C 4.421875 0.503906 4.082031 0.632812 3.71875 0.71875 C 3.351562 0.8125 2.992188 0.820312 2.640625 0.75 C 2.265625 0.664062 1.929688 0.519531 1.640625 0.3125 C 1.410156 0.15625 1.210938 -0.0351562 1.046875 -0.265625 C 0.859375 -0.472656 0.75 -0.71875 0.71875 -1 C 0.664062 -1.269531 0.679688 -1.5625 0.765625 -1.875 C 0.878906 -2.332031 1.085938 -2.710938 1.390625 -3.015625 Z M 2.578125 -1.859375 C 2.503906 -1.628906 2.5625 -1.347656 2.75 -1.015625 C 2.945312 -0.703125 3.195312 -0.570312 3.5 -0.625 C 3.695312 -0.644531 3.84375 -0.726562 3.9375 -0.875 C 4.007812 -1.007812 4.046875 -1.175781 4.046875 -1.375 C 4.023438 -1.769531 3.8125 -2.066406 3.40625 -2.265625 C 2.988281 -2.472656 2.710938 -2.335938 2.578125 -1.859375 Z M 2.578125 -1.859375 "/></g></g></g><g fill="#45c8ff" fill-opacity="1"><g transform="translate(96.236519, 235.493688)"><g><path d="M 2.453125 -5.546875 C 2.453125 -5.585938 2.457031 -5.632812 2.46875 -5.6875 C 2.5625 -6.101562 2.648438 -6.421875 2.734375 -6.640625 C 2.816406 -6.847656 2.925781 -7.015625 3.0625 -7.140625 C 3.15625 -7.273438 3.273438 -7.359375 3.421875 -7.390625 C 3.578125 -7.421875 3.726562 -7.4375 3.875 -7.4375 C 4.019531 -7.414062 4.175781 -7.382812 4.34375 -7.34375 C 4.570312 -7.289062 4.742188 -7.207031 4.859375 -7.09375 C 4.984375 -6.976562 5.003906 -6.785156 4.921875 -6.515625 C 4.816406 -5.984375 4.726562 -5.550781 4.65625 -5.21875 C 4.738281 -5.195312 4.816406 -5.175781 4.890625 -5.15625 C 5.097656 -5.101562 5.304688 -5.035156 5.515625 -4.953125 C 5.597656 -4.898438 5.695312 -4.820312 5.8125 -4.71875 C 5.894531 -4.644531 5.953125 -4.53125 5.984375 -4.375 C 6.015625 -4.125 5.984375 -3.914062 5.890625 -3.75 C 5.773438 -3.5625 5.585938 -3.46875 5.328125 -3.46875 C 5.085938 -3.457031 4.78125 -3.492188 4.40625 -3.578125 L 4.40625 -3.546875 C 4.164062 -2.566406 4.09375 -1.90625 4.1875 -1.5625 C 4.28125 -1.226562 4.46875 -0.957031 4.75 -0.75 C 5.039062 -0.539062 5.101562 -0.25 4.9375 0.125 C 4.78125 0.507812 4.460938 0.695312 3.984375 0.6875 C 3.492188 0.675781 3.0625 0.457031 2.6875 0.03125 C 2.300781 -0.382812 2.085938 -0.9375 2.046875 -1.625 C 1.992188 -2.300781 2.023438 -3.035156 2.140625 -3.828125 L 2.15625 -3.984375 C 1.914062 -4.015625 1.675781 -4.050781 1.4375 -4.09375 C 1.363281 -4.09375 1.316406 -4.097656 1.296875 -4.109375 C 1.253906 -4.109375 1.210938 -4.117188 1.171875 -4.140625 C 1.140625 -4.148438 1.113281 -4.175781 1.09375 -4.21875 C 1.070312 -4.25 1.050781 -4.296875 1.03125 -4.359375 C 1.007812 -4.566406 1.019531 -4.742188 1.0625 -4.890625 C 1.09375 -5.023438 1.128906 -5.148438 1.171875 -5.265625 C 1.222656 -5.367188 1.34375 -5.4375 1.53125 -5.46875 C 1.613281 -5.5 1.726562 -5.519531 1.875 -5.53125 C 1.957031 -5.539062 2.082031 -5.539062 2.25 -5.53125 C 2.300781 -5.539062 2.367188 -5.546875 2.453125 -5.546875 Z M 2.453125 -5.546875 "/></g></g></g><g fill="#3d98d6" fill-opacity="1"><g transform="translate(103.70224, 236.460132)"><g/></g></g><g fill="#76df64" fill-opacity="1"><g transform="translate(108.588703, 236.657957)"><g><path d="M 2.171875 -2.546875 C 2.054688 -2.316406 2.085938 -2.085938 2.265625 -1.859375 C 2.441406 -1.617188 2.71875 -1.570312 3.09375 -1.71875 C 3.3125 -1.789062 3.476562 -1.90625 3.59375 -2.0625 C 3.695312 -2.207031 3.765625 -2.363281 3.796875 -2.53125 C 3.804688 -2.695312 3.75 -2.84375 3.625 -2.96875 C 3.507812 -3.082031 3.363281 -3.144531 3.1875 -3.15625 C 3 -3.164062 2.8125 -3.125 2.625 -3.03125 C 2.425781 -2.9375 2.273438 -2.773438 2.171875 -2.546875 Z M 3.15625 -4.765625 C 2.789062 -4.828125 2.429688 -4.8125 2.078125 -4.71875 C 1.804688 -4.65625 1.578125 -4.546875 1.390625 -4.390625 C 1.203125 -4.222656 0.984375 -4.15625 0.734375 -4.1875 C 0.484375 -4.226562 0.296875 -4.359375 0.171875 -4.578125 C 0.0546875 -4.804688 0.0703125 -5.007812 0.21875 -5.1875 C 0.363281 -5.363281 0.492188 -5.5 0.609375 -5.59375 C 0.691406 -5.664062 0.773438 -5.722656 0.859375 -5.765625 C 1.085938 -5.921875 1.332031 -6.03125 1.59375 -6.09375 C 1.851562 -6.144531 2.113281 -6.1875 2.375 -6.21875 C 2.71875 -6.238281 3.050781 -6.222656 3.375 -6.171875 C 3.644531 -6.140625 3.90625 -6.082031 4.15625 -6 C 4.414062 -5.90625 4.671875 -5.703125 4.921875 -5.390625 C 5.171875 -5.066406 5.296875 -4.675781 5.296875 -4.21875 C 5.296875 -3.769531 5.316406 -3.234375 5.359375 -2.609375 C 5.398438 -1.921875 5.519531 -1.414062 5.71875 -1.09375 C 5.738281 -1.039062 5.765625 -0.984375 5.796875 -0.921875 C 5.816406 -0.859375 5.828125 -0.796875 5.828125 -0.734375 C 5.828125 -0.628906 5.789062 -0.535156 5.71875 -0.453125 C 5.632812 -0.359375 5.5 -0.289062 5.3125 -0.25 C 5.144531 -0.195312 4.984375 -0.191406 4.828125 -0.234375 C 4.671875 -0.273438 4.5625 -0.3125 4.5 -0.34375 C 4.375 -0.394531 4.28125 -0.472656 4.21875 -0.578125 C 4.164062 -0.660156 4.125 -0.742188 4.09375 -0.828125 C 3.90625 -0.660156 3.742188 -0.539062 3.609375 -0.46875 C 3.316406 -0.3125 2.992188 -0.210938 2.640625 -0.171875 C 2.273438 -0.140625 1.925781 -0.171875 1.59375 -0.265625 C 1.34375 -0.328125 1.109375 -0.421875 0.890625 -0.546875 C 0.671875 -0.671875 0.503906 -0.832031 0.390625 -1.03125 C 0.265625 -1.226562 0.195312 -1.457031 0.1875 -1.71875 C 0.15625 -2.09375 0.234375 -2.441406 0.421875 -2.765625 C 0.515625 -2.921875 0.601562 -3.066406 0.6875 -3.203125 C 0.769531 -3.328125 0.957031 -3.503906 1.25 -3.734375 C 1.539062 -3.972656 1.898438 -4.132812 2.328125 -4.21875 C 2.773438 -4.300781 3.242188 -4.300781 3.734375 -4.21875 C 3.753906 -4.238281 3.738281 -4.3125 3.6875 -4.4375 C 3.632812 -4.550781 3.457031 -4.660156 3.15625 -4.765625 Z M 3.15625 -4.765625 "/></g></g></g><g fill="#76df64" fill-opacity="1"><g transform="translate(116.734494, 235.955886)"><g><path d="M 1.40625 -5.46875 C 1.5625 -5.664062 1.796875 -5.816406 2.109375 -5.921875 C 2.429688 -6.003906 2.800781 -5.972656 3.21875 -5.828125 C 3.644531 -5.660156 4.007812 -5.382812 4.3125 -5 C 4.582031 -4.625 4.804688 -4.234375 4.984375 -3.828125 C 5.097656 -3.546875 5.234375 -3.144531 5.390625 -2.625 C 5.535156 -2.113281 5.566406 -1.703125 5.484375 -1.390625 C 5.453125 -1.273438 5.390625 -1.195312 5.296875 -1.15625 C 5.128906 -1.09375 4.914062 -1.078125 4.65625 -1.109375 C 4.382812 -1.128906 4.191406 -1.164062 4.078125 -1.21875 C 4.023438 -1.257812 3.988281 -1.296875 3.96875 -1.328125 C 3.914062 -1.398438 3.882812 -1.476562 3.875 -1.5625 C 3.882812 -1.644531 3.882812 -1.722656 3.875 -1.796875 C 3.875 -2.066406 3.832031 -2.347656 3.75 -2.640625 C 3.65625 -2.929688 3.550781 -3.195312 3.4375 -3.4375 C 3.34375 -3.601562 3.257812 -3.742188 3.1875 -3.859375 C 2.875 -4.171875 2.578125 -4.28125 2.296875 -4.1875 C 1.992188 -4.09375 1.847656 -3.738281 1.859375 -3.125 C 1.878906 -2.757812 2.023438 -2.25 2.296875 -1.59375 C 2.335938 -1.519531 2.378906 -1.4375 2.421875 -1.34375 C 2.460938 -1.25 2.492188 -1.15625 2.515625 -1.0625 C 2.546875 -0.894531 2.488281 -0.75 2.34375 -0.625 C 2.207031 -0.519531 2.035156 -0.441406 1.828125 -0.390625 C 1.628906 -0.335938 1.421875 -0.3125 1.203125 -0.3125 C 1.015625 -0.300781 0.875 -0.3125 0.78125 -0.34375 C 0.613281 -0.40625 0.476562 -0.519531 0.375 -0.6875 C 0.269531 -0.863281 0.1875 -1.03125 0.125 -1.1875 C 0 -1.519531 -0.117188 -1.941406 -0.234375 -2.453125 C -0.359375 -2.953125 -0.441406 -3.320312 -0.484375 -3.5625 C -0.523438 -3.78125 -0.5625 -4.035156 -0.59375 -4.328125 C -0.632812 -4.628906 -0.613281 -5.015625 -0.53125 -5.484375 C -0.46875 -5.640625 -0.378906 -5.75 -0.265625 -5.8125 C -0.160156 -5.90625 -0.0195312 -5.976562 0.15625 -6.03125 C 0.332031 -6.070312 0.484375 -6.101562 0.609375 -6.125 C 0.828125 -6.144531 0.992188 -6.117188 1.109375 -6.046875 C 1.234375 -5.972656 1.300781 -5.796875 1.3125 -5.515625 Z M 1.40625 -5.46875 "/></g></g></g><g fill="#76df64" fill-opacity="1"><g transform="translate(124.691342, 234.130573)"><g><path d="M 1.0625 -3.28125 C 1.15625 -3.019531 1.398438 -2.804688 1.796875 -2.640625 C 2.179688 -2.460938 2.492188 -2.503906 2.734375 -2.765625 C 2.890625 -2.929688 2.953125 -3.109375 2.921875 -3.296875 C 2.898438 -3.472656 2.820312 -3.640625 2.6875 -3.796875 C 2.550781 -3.984375 2.367188 -4.109375 2.140625 -4.171875 C 1.921875 -4.234375 1.710938 -4.25 1.515625 -4.21875 C 1.328125 -4.164062 1.179688 -4.0625 1.078125 -3.90625 C 0.972656 -3.75 0.96875 -3.539062 1.0625 -3.28125 Z M 3.921875 -2.125 C 3.847656 -1.976562 3.757812 -1.84375 3.65625 -1.71875 C 3.414062 -1.425781 3.117188 -1.191406 2.765625 -1.015625 C 2.410156 -0.847656 2.050781 -0.757812 1.6875 -0.75 C 1.394531 -0.75 1.113281 -0.785156 0.84375 -0.859375 C 0.5625 -0.941406 0.316406 -1.082031 0.109375 -1.28125 C -0.0976562 -1.476562 -0.265625 -1.738281 -0.390625 -2.0625 C -0.578125 -2.507812 -0.648438 -2.960938 -0.609375 -3.421875 C -0.585938 -3.640625 -0.550781 -3.859375 -0.5 -4.078125 C -0.457031 -4.296875 -0.382812 -4.515625 -0.28125 -4.734375 C -0.226562 -4.804688 -0.179688 -4.894531 -0.140625 -5 C 0.140625 -5.53125 0.515625 -5.960938 0.984375 -6.296875 C 1.367188 -6.566406 1.765625 -6.726562 2.171875 -6.78125 C 1.679688 -7.96875 1.4375 -8.59375 1.4375 -8.65625 C 1.457031 -8.789062 1.507812 -8.890625 1.59375 -8.953125 C 1.6875 -9.035156 1.800781 -9.109375 1.9375 -9.171875 C 2.082031 -9.234375 2.210938 -9.273438 2.328125 -9.296875 C 2.492188 -9.347656 2.640625 -9.359375 2.765625 -9.328125 C 2.890625 -9.285156 3.066406 -8.882812 3.296875 -8.125 C 3.765625 -6.832031 4.164062 -5.78125 4.5 -4.96875 C 4.851562 -4.125 5.25 -3.414062 5.6875 -2.84375 C 5.726562 -2.789062 5.773438 -2.734375 5.828125 -2.671875 C 5.867188 -2.609375 5.910156 -2.539062 5.953125 -2.46875 C 5.992188 -2.34375 5.960938 -2.222656 5.859375 -2.109375 C 5.753906 -2.023438 5.617188 -1.945312 5.453125 -1.875 C 5.285156 -1.789062 5.117188 -1.738281 4.953125 -1.71875 C 4.773438 -1.675781 4.640625 -1.660156 4.546875 -1.671875 C 4.398438 -1.703125 4.269531 -1.769531 4.15625 -1.875 C 4.082031 -1.957031 4.003906 -2.039062 3.921875 -2.125 Z M 3.921875 -2.125 "/></g></g></g><g fill="#de468b" fill-opacity="1"><g transform="translate(132.745018, 230.888667)"><g/></g></g><g fill="#fdbc28" fill-opacity="1"><g transform="translate(137.093459, 228.636778)"><g><path d="M -1.578125 -5.34375 C -1.085938 -5.019531 -0.535156 -4.710938 0.078125 -4.421875 C 0.691406 -4.128906 1.296875 -3.910156 1.890625 -3.765625 C 1.742188 -4.328125 1.554688 -4.90625 1.328125 -5.5 C 1.085938 -6.070312 0.832031 -6.597656 0.5625 -7.078125 C 0.457031 -7.253906 0.4375 -7.390625 0.5 -7.484375 C 0.550781 -7.585938 0.65625 -7.671875 0.8125 -7.734375 C 0.90625 -7.804688 1.015625 -7.863281 1.140625 -7.90625 C 1.273438 -7.945312 1.40625 -7.960938 1.53125 -7.953125 C 1.644531 -7.953125 1.742188 -7.921875 1.828125 -7.859375 C 1.941406 -7.753906 2.066406 -7.613281 2.203125 -7.4375 C 2.484375 -7.03125 2.789062 -6.382812 3.125 -5.5 C 3.457031 -4.613281 3.65625 -3.910156 3.71875 -3.390625 C 3.738281 -3.242188 3.738281 -3.097656 3.71875 -2.953125 C 3.71875 -2.804688 3.675781 -2.671875 3.59375 -2.546875 C 3.425781 -2.367188 3.164062 -2.210938 2.8125 -2.078125 C 2.457031 -1.960938 2.160156 -1.921875 1.921875 -1.953125 C 1.398438 -2.035156 0.707031 -2.269531 -0.15625 -2.65625 C -1.007812 -3.050781 -1.628906 -3.398438 -2.015625 -3.703125 C -2.191406 -3.859375 -2.316406 -3.988281 -2.390625 -4.09375 C -2.460938 -4.175781 -2.5 -4.28125 -2.5 -4.40625 C -2.5 -4.507812 -2.476562 -4.628906 -2.4375 -4.765625 C -2.375 -4.898438 -2.316406 -5.019531 -2.265625 -5.125 C -2.179688 -5.257812 -2.085938 -5.359375 -1.984375 -5.421875 C -1.878906 -5.472656 -1.742188 -5.445312 -1.578125 -5.34375 Z M -1.578125 -5.34375 "/></g></g></g><g fill="#fdbc28" fill-opacity="1"><g transform="translate(143.852594, 223.874909)"><g><path d="M -2.96875 -4.875 C -2.894531 -4.945312 -2.8125 -5.019531 -2.71875 -5.09375 C -2.675781 -5.132812 -2.632812 -5.164062 -2.59375 -5.1875 C -2.40625 -5.34375 -2.265625 -5.441406 -2.171875 -5.484375 C -2.054688 -5.566406 -1.953125 -5.617188 -1.859375 -5.640625 C -1.835938 -5.660156 -1.8125 -5.675781 -1.78125 -5.6875 C -1.757812 -5.675781 -1.734375 -5.671875 -1.703125 -5.671875 L -1.609375 -5.671875 C -1.597656 -5.679688 -1.566406 -5.675781 -1.515625 -5.65625 C -1.492188 -5.644531 -1.46875 -5.632812 -1.4375 -5.625 L -1.3125 -5.546875 C -1.289062 -5.523438 -1.253906 -5.488281 -1.203125 -5.4375 C -1.203125 -5.425781 -1.191406 -5.410156 -1.171875 -5.390625 C -0.992188 -5.171875 -0.753906 -4.835938 -0.453125 -4.390625 C -0.296875 -4.179688 -0.128906 -3.96875 0.046875 -3.75 C 0.472656 -3.257812 0.957031 -2.773438 1.5 -2.296875 C 1.5625 -2.203125 1.625 -2.101562 1.6875 -2 C 1.738281 -1.894531 1.769531 -1.816406 1.78125 -1.765625 C 1.769531 -1.679688 1.722656 -1.582031 1.640625 -1.46875 C 1.585938 -1.414062 1.53125 -1.359375 1.46875 -1.296875 C 1.414062 -1.242188 1.351562 -1.191406 1.28125 -1.140625 C 1.15625 -1.035156 1.019531 -0.941406 0.875 -0.859375 C 0.757812 -0.785156 0.648438 -0.726562 0.546875 -0.6875 L 0.484375 -0.671875 C 0.460938 -0.660156 0.429688 -0.65625 0.390625 -0.65625 C 0.367188 -0.65625 0.335938 -0.65625 0.296875 -0.65625 C 0.296875 -0.65625 0.269531 -0.664062 0.21875 -0.6875 C 0.1875 -0.6875 0.15625 -0.695312 0.125 -0.71875 C 0.09375 -0.75 0.0546875 -0.78125 0.015625 -0.8125 C -0.046875 -0.863281 -0.503906 -1.320312 -1.359375 -2.1875 C -1.492188 -2.34375 -1.628906 -2.492188 -1.765625 -2.640625 L -1.78125 -2.671875 L -1.796875 -2.6875 L -1.8125 -2.71875 C -1.820312 -2.71875 -1.832031 -2.722656 -1.84375 -2.734375 C -2.414062 -3.410156 -2.789062 -4.125 -2.96875 -4.875 Z M -3.203125 -7.375 C -2.910156 -7.363281 -2.679688 -7.257812 -2.515625 -7.0625 C -2.347656 -6.851562 -2.28125 -6.609375 -2.3125 -6.328125 C -2.34375 -6.054688 -2.460938 -5.832031 -2.671875 -5.65625 C -2.890625 -5.46875 -3.140625 -5.382812 -3.421875 -5.40625 C -3.703125 -5.414062 -3.925781 -5.523438 -4.09375 -5.734375 C -4.257812 -5.929688 -4.332031 -6.171875 -4.3125 -6.453125 C -4.269531 -6.710938 -4.140625 -6.9375 -3.921875 -7.125 C -3.710938 -7.300781 -3.472656 -7.382812 -3.203125 -7.375 Z M -3.203125 -7.375 "/></g></g></g><g fill="#fdbc28" fill-opacity="1"><g transform="translate(147.587667, 220.655526)"><g><path d="M 0.21875 -5.203125 L 0.734375 -5.296875 L 0.765625 -5.3125 C 1.140625 -5.40625 1.46875 -5.410156 1.75 -5.328125 C 2.050781 -5.222656 2.28125 -5 2.4375 -4.65625 C 2.601562 -4.332031 2.65625 -3.960938 2.59375 -3.546875 C 2.550781 -3.265625 2.453125 -2.988281 2.296875 -2.71875 C 2.109375 -2.445312 1.890625 -2.1875 1.640625 -1.9375 L 1.65625 -1.9375 C 1.34375 -1.644531 1.1875 -1.519531 1.1875 -1.5625 C 1.050781 -1.46875 0.929688 -1.390625 0.828125 -1.328125 L 0.03125 -1.015625 C -0.132812 -0.984375 -0.300781 -0.96875 -0.46875 -0.96875 C -0.476562 -0.96875 -0.484375 -0.96875 -0.484375 -0.96875 C -0.492188 -0.976562 -0.5 -0.984375 -0.5 -0.984375 C -0.519531 -0.972656 -0.535156 -0.96875 -0.546875 -0.96875 C -0.640625 -0.976562 -0.71875 -1.007812 -0.78125 -1.0625 L -0.8125 -1.09375 C -0.882812 -1.164062 -0.96875 -1.253906 -1.0625 -1.359375 C -1.164062 -1.460938 -1.238281 -1.554688 -1.28125 -1.640625 C -1.320312 -1.742188 -1.300781 -1.8125 -1.21875 -1.84375 C -1.125 -1.875 -1.039062 -1.898438 -0.96875 -1.921875 C -0.957031 -1.921875 -0.953125 -1.921875 -0.953125 -1.921875 C -0.941406 -1.921875 -0.9375 -1.921875 -0.9375 -1.921875 C -0.738281 -1.941406 -0.546875 -1.984375 -0.359375 -2.046875 C 0.0546875 -2.203125 0.363281 -2.441406 0.5625 -2.765625 C 0.570312 -2.785156 0.582031 -2.816406 0.59375 -2.859375 C 0.625 -3.003906 0.570312 -3.09375 0.4375 -3.125 C 0.414062 -3.125 0.398438 -3.128906 0.390625 -3.140625 L 0.375 -3.125 C 0.320312 -3.132812 0.0351562 -3.085938 -0.484375 -2.984375 C -1.222656 -2.816406 -1.671875 -2.753906 -1.828125 -2.796875 C -2.234375 -2.867188 -2.523438 -3.050781 -2.703125 -3.34375 C -2.878906 -3.644531 -2.957031 -3.984375 -2.9375 -4.359375 C -2.882812 -5.066406 -2.410156 -5.800781 -1.515625 -6.5625 C -1.378906 -6.632812 -1.257812 -6.691406 -1.15625 -6.734375 C -1.113281 -6.753906 -1.050781 -6.78125 -0.96875 -6.8125 C -0.882812 -6.832031 -0.785156 -6.863281 -0.671875 -6.90625 L -0.4375 -6.890625 C -0.425781 -6.890625 -0.410156 -6.890625 -0.390625 -6.890625 C -0.273438 -6.890625 -0.144531 -6.84375 0 -6.75 C 0.132812 -6.664062 0.203125 -6.554688 0.203125 -6.421875 C 0.191406 -6.398438 0.1875 -6.390625 0.1875 -6.390625 C 0.175781 -6.265625 0.0976562 -6.160156 -0.046875 -6.078125 C -0.203125 -5.984375 -0.347656 -5.882812 -0.484375 -5.78125 L -0.75 -5.625 C -0.851562 -5.53125 -0.960938 -5.421875 -1.078125 -5.296875 C -1.234375 -4.960938 -1.019531 -4.863281 -0.4375 -5 C -0.375 -5.007812 -0.15625 -5.078125 0.21875 -5.203125 Z M 0.21875 -5.203125 "/></g></g></g><g fill="#fdbc28" fill-opacity="1"><g transform="translate(152.550437, 215.196277)"><g><path d="M -3.921875 -4.125 C -3.867188 -4.21875 -3.8125 -4.3125 -3.75 -4.40625 C -3.707031 -4.457031 -3.664062 -4.5 -3.625 -4.53125 C -3.476562 -4.707031 -3.363281 -4.832031 -3.28125 -4.90625 C -3.1875 -5 -3.097656 -5.070312 -3.015625 -5.125 C -3.003906 -5.144531 -2.984375 -5.160156 -2.953125 -5.171875 C -2.929688 -5.171875 -2.90625 -5.179688 -2.875 -5.203125 L -2.78125 -5.203125 C -2.757812 -5.210938 -2.726562 -5.210938 -2.6875 -5.203125 C -2.65625 -5.203125 -2.625 -5.195312 -2.59375 -5.1875 L -2.46875 -5.140625 C -2.445312 -5.117188 -2.40625 -5.09375 -2.34375 -5.0625 C -2.332031 -5.0625 -2.316406 -5.050781 -2.296875 -5.03125 C -2.066406 -4.84375 -1.757812 -4.566406 -1.375 -4.203125 C -1.175781 -4.023438 -0.96875 -3.847656 -0.75 -3.671875 C -0.226562 -3.273438 0.34375 -2.898438 0.96875 -2.546875 C 1.0625 -2.484375 1.144531 -2.40625 1.21875 -2.3125 C 1.300781 -2.21875 1.347656 -2.148438 1.359375 -2.109375 C 1.367188 -2.023438 1.347656 -1.914062 1.296875 -1.78125 C 1.265625 -1.71875 1.222656 -1.65625 1.171875 -1.59375 C 1.117188 -1.519531 1.066406 -1.453125 1.015625 -1.390625 C 0.921875 -1.265625 0.800781 -1.144531 0.65625 -1.03125 C 0.570312 -0.9375 0.476562 -0.859375 0.375 -0.796875 L 0.328125 -0.75 C 0.316406 -0.738281 0.285156 -0.734375 0.234375 -0.734375 C 0.222656 -0.722656 0.195312 -0.710938 0.15625 -0.703125 C 0.15625 -0.703125 0.125 -0.707031 0.0625 -0.71875 C 0.0390625 -0.707031 0.0078125 -0.710938 -0.03125 -0.734375 C -0.0703125 -0.753906 -0.113281 -0.773438 -0.15625 -0.796875 C -0.226562 -0.835938 -0.769531 -1.1875 -1.78125 -1.84375 C -1.957031 -1.957031 -2.125 -2.078125 -2.28125 -2.203125 L -2.3125 -2.21875 L -2.359375 -2.265625 C -2.367188 -2.265625 -2.378906 -2.269531 -2.390625 -2.28125 C -3.085938 -2.8125 -3.597656 -3.425781 -3.921875 -4.125 Z M -4.6875 -6.53125 C -4.40625 -6.570312 -4.160156 -6.515625 -3.953125 -6.359375 C -3.742188 -6.191406 -3.625 -5.96875 -3.59375 -5.6875 C -3.570312 -5.414062 -3.644531 -5.171875 -3.8125 -4.953125 C -3.988281 -4.722656 -4.207031 -4.585938 -4.46875 -4.546875 C -4.75 -4.492188 -4.992188 -4.550781 -5.203125 -4.71875 C -5.410156 -4.875 -5.53125 -5.097656 -5.5625 -5.390625 C -5.59375 -5.648438 -5.519531 -5.894531 -5.34375 -6.125 C -5.175781 -6.34375 -4.957031 -6.476562 -4.6875 -6.53125 Z M -4.6875 -6.53125 "/></g></g></g><g fill="#fdbc28" fill-opacity="1"><g transform="translate(155.538643, 211.250317)"><g><path d="M -2.59375 -2.109375 C -2.851562 -2.535156 -3.023438 -2.929688 -3.109375 -3.296875 C -3.140625 -3.441406 -3.160156 -3.539062 -3.171875 -3.59375 C -3.265625 -4.144531 -3.234375 -4.695312 -3.078125 -5.25 C -2.941406 -5.71875 -2.710938 -6.113281 -2.390625 -6.4375 C -2.222656 -6.582031 -2.019531 -6.703125 -1.78125 -6.796875 C -1.53125 -6.890625 -1.289062 -6.929688 -1.0625 -6.921875 C -0.820312 -6.898438 -0.546875 -6.820312 -0.234375 -6.6875 C 0.203125 -6.46875 0.550781 -6.195312 0.8125 -5.875 C 0.976562 -5.675781 1.117188 -5.457031 1.234375 -5.21875 C 1.347656 -4.96875 1.4375 -4.726562 1.5 -4.5 C 1.59375 -4.144531 1.632812 -3.78125 1.625 -3.40625 C 1.632812 -3.050781 1.550781 -2.703125 1.375 -2.359375 C 1.21875 -2.015625 1 -1.726562 0.71875 -1.5 C 0.507812 -1.320312 0.269531 -1.179688 0 -1.078125 C -0.25 -0.960938 -0.507812 -0.914062 -0.78125 -0.9375 C -1.0625 -0.96875 -1.335938 -1.0625 -1.609375 -1.21875 C -2.023438 -1.4375 -2.351562 -1.734375 -2.59375 -2.109375 Z M -1.15625 -2.953125 C -0.945312 -2.828125 -0.664062 -2.8125 -0.3125 -2.90625 C 0.0507812 -3.03125 0.25 -3.242188 0.28125 -3.546875 C 0.300781 -3.742188 0.253906 -3.90625 0.140625 -4.03125 C 0.0234375 -4.125 -0.117188 -4.195312 -0.296875 -4.25 C -0.691406 -4.34375 -1.035156 -4.21875 -1.328125 -3.875 C -1.640625 -3.519531 -1.582031 -3.210938 -1.15625 -2.953125 Z M -1.15625 -2.953125 "/></g></g></g><g fill="#fdbc28" fill-opacity="1"><g transform="translate(159.55908, 204.299543)"><g><path d="M -3.671875 -4.296875 C -3.742188 -4.535156 -3.726562 -4.8125 -3.625 -5.125 C -3.519531 -5.445312 -3.285156 -5.734375 -2.921875 -5.984375 C -2.523438 -6.234375 -2.09375 -6.367188 -1.625 -6.390625 C -1.15625 -6.410156 -0.707031 -6.375 -0.28125 -6.28125 C 0.0195312 -6.21875 0.425781 -6.09375 0.9375 -5.90625 C 1.4375 -5.738281 1.796875 -5.53125 2.015625 -5.28125 C 2.085938 -5.207031 2.113281 -5.113281 2.09375 -5 C 2.050781 -4.832031 1.945312 -4.648438 1.78125 -4.453125 C 1.59375 -4.242188 1.441406 -4.109375 1.328125 -4.046875 C 1.273438 -4.035156 1.222656 -4.023438 1.171875 -4.015625 C 1.097656 -4.015625 1.023438 -4.035156 0.953125 -4.078125 C 0.878906 -4.128906 0.816406 -4.175781 0.765625 -4.21875 C 0.523438 -4.363281 0.265625 -4.484375 -0.015625 -4.578125 C -0.296875 -4.679688 -0.570312 -4.753906 -0.84375 -4.796875 C -1.03125 -4.816406 -1.191406 -4.820312 -1.328125 -4.8125 C -1.765625 -4.75 -2.023438 -4.570312 -2.109375 -4.28125 C -2.203125 -3.988281 -1.992188 -3.664062 -1.484375 -3.3125 C -1.179688 -3.113281 -0.679688 -2.945312 0.015625 -2.8125 C 0.109375 -2.800781 0.203125 -2.78125 0.296875 -2.75 C 0.390625 -2.726562 0.484375 -2.703125 0.578125 -2.671875 C 0.734375 -2.585938 0.820312 -2.457031 0.84375 -2.28125 C 0.84375 -2.101562 0.804688 -1.914062 0.734375 -1.71875 C 0.660156 -1.53125 0.5625 -1.347656 0.4375 -1.171875 C 0.332031 -0.992188 0.242188 -0.878906 0.171875 -0.828125 C 0.0234375 -0.734375 -0.144531 -0.691406 -0.34375 -0.703125 C -0.539062 -0.722656 -0.726562 -0.753906 -0.90625 -0.796875 C -1.25 -0.867188 -1.660156 -1.003906 -2.140625 -1.203125 C -2.628906 -1.398438 -2.976562 -1.550781 -3.1875 -1.65625 C -3.382812 -1.738281 -3.617188 -1.847656 -3.890625 -1.984375 C -4.148438 -2.140625 -4.453125 -2.382812 -4.796875 -2.71875 C -4.890625 -2.851562 -4.9375 -2.984375 -4.9375 -3.109375 C -4.925781 -3.253906 -4.894531 -3.414062 -4.84375 -3.59375 C -4.78125 -3.75 -4.71875 -3.890625 -4.65625 -4.015625 C -4.550781 -4.203125 -4.4375 -4.320312 -4.3125 -4.375 C -4.1875 -4.445312 -4.003906 -4.398438 -3.765625 -4.234375 Z M -3.671875 -4.296875 "/></g></g></g></svg>